<?xml version="1.0" encoding="UTF-8" standalone="no" ?>
<!DOCTYPE svg PUBLIC "-//W3C//DTD SVG 1.1//EN" "http://www.w3.org/Graphics/SVG/1.1/DTD/svg11.dtd">
<svg xmlns="http://www.w3.org/2000/svg" xmlns:xlink="http://www.w3.org/1999/xlink" version="1.1" width="300" height="300" viewBox="0 0 300 300" xml:space="preserve">
<desc>Created with Fabric.js 5.2.4</desc>
<defs>
</defs>
<rect x="0" y="0" width="100%" height="100%" fill="transparent"></rect>
<g transform="matrix(1 0 0 1 150 150)" id="ef6ede08-0e39-4189-bcec-daffd1b20371"  >
<rect style="stroke: none; stroke-width: 1; stroke-dasharray: none; stroke-linecap: butt; stroke-dashoffset: 0; stroke-linejoin: miter; stroke-miterlimit: 4; fill: rgb(255,255,255); fill-rule: nonzero; opacity: 1; visibility: hidden;" vector-effect="non-scaling-stroke"  x="-150" y="-150" rx="0" ry="0" width="300" height="300" />
</g>
<g transform="matrix(Infinity NaN NaN Infinity 0 0)" id="d1cc30c4-2af4-424e-9d20-4c900ca8083a"  >
</g>
<g transform="matrix(0.56 0 0 0.53 150 150)"  >
<g style="" vector-effect="non-scaling-stroke"   >
		<g transform="matrix(0.13 0 0 -0.13 -5.28 -6.54)"  >
<path style="stroke: none; stroke-width: 1; stroke-dasharray: none; stroke-linecap: butt; stroke-dashoffset: 0; stroke-linejoin: miter; stroke-miterlimit: 4; fill: rgb(255,255,255); fill-rule: nonzero; opacity: 1;" vector-effect="non-scaling-stroke"  transform=" translate(-1974.88, -2015.8)" d="M 1923 3833 L 1875 3685 L 1717 3680 L 1558 3675 L 1682 3586 C 1749 3537 1807 3495 1809 3494 C 1817 3488 1712 3196 1699 3189 C 1691 3185 1642 3172 1590 3160 C 1538 3148 1446 3119 1387 3095 C 603 2781 203 1911 476 1112 C 512 1006 611 815 677 722 C 922 380 1281 151 1695 74 C 1834 48 2116 48 2255 74 C 2880 190 3377 660 3519 1272 C 3641 1792 3482 2355 3105 2735 C 2872 2970 2608 3110 2260 3184 C 2237 3189 2230 3204 2187 3341 C 2160 3424 2140 3493 2142 3494 C 2144 3496 2201 3537 2270 3586 L 2394 3675 L 2235 3680 L 2077 3685 L 2029 3829 C 2002 3908 1979 3975 1976 3977 C 1974 3980 1950 3915 1923 3833 z M 2015 3743 L 2046 3645 L 2160 3640 L 2275 3635 L 2192 3576 C 2146 3544 2106 3512 2103 3505 C 2101 3498 2112 3448 2129 3394 C 2146 3340 2158 3295 2156 3293 C 2155 3291 2118 3316 2074 3348 C 2031 3380 1990 3409 1984 3413 C 1978 3416 1934 3390 1885 3355 C 1836 3319 1795 3292 1793 3294 C 1791 3296 1803 3340 1820 3392 C 1836 3444 1850 3492 1850 3498 C 1850 3505 1811 3538 1764 3572 L 1678 3635 L 1791 3640 L 1903 3645 L 1938 3748 C 1957 3805 1975 3849 1978 3846 C 1981 3843 1997 3796 2015 3743 z M 2099 3283 C 2165 3235 2218 3195 2217 3194 C 2216 3193 2160 3197 2093 3202 C 2007 3210 1938 3210 1853 3202 C 1788 3196 1734 3193 1733 3194 C 1730 3197 1963 3368 1972 3369 C 1976 3370 2033 3331 2099 3283 z M 2235 3140 C 2452 3103 2647 3025 2837 2898 C 2980 2804 3160 2624 3253 2485 C 3612 1944 3600 1258 3224 733 C 3137 611 2960 441 2834 357 C 2309 7 1641 7 1116 357 C 990 441 813 611 726 733 C 350 1258 338 1944 697 2485 C 790 2624 970 2804 1113 2898 C 1300 3022 1497 3102 1707 3139 C 1859 3166 2081 3166 2235 3140 z" stroke-linecap="round" />
</g>
		<g transform="matrix(0.13 0 0 -0.13 -0.67 -207.46)"  >
<path style="stroke: none; stroke-width: 1; stroke-dasharray: none; stroke-linecap: butt; stroke-dashoffset: 0; stroke-linejoin: miter; stroke-miterlimit: 4; fill: rgb(255,255,255); fill-rule: nonzero; opacity: 1;" vector-effect="non-scaling-stroke"  transform=" translate(-1975, -3567.04)" d="M 1948 3688 L 1923 3615 L 1846 3610 L 1768 3605 L 1829 3562 C 1863 3539 1890 3516 1890 3511 C 1890 3507 1881 3477 1870 3445 C 1859 3412 1851 3382 1852 3378 C 1854 3373 1880 3387 1909 3410 C 1939 3432 1969 3450 1975 3450 C 1981 3450 2011 3432 2041 3410 C 2070 3387 2096 3373 2098 3378 C 2099 3382 2091 3412 2080 3445 C 2069 3477 2060 3507 2060 3511 C 2060 3516 2087 3539 2121 3562 L 2182 3605 L 2104 3610 L 2027 3615 L 2004 3684 C 1991 3722 1978 3755 1976 3757 C 1974 3759 1961 3728 1948 3688 z" stroke-linecap="round" />
</g>
		<g transform="matrix(0.13 0 0 -0.13 -27.58 -122.56)"  >
<path style="stroke: none; stroke-width: 1; stroke-dasharray: none; stroke-linecap: butt; stroke-dashoffset: 0; stroke-linejoin: miter; stroke-miterlimit: 4; fill: rgb(255,255,255); fill-rule: nonzero; opacity: 1;" vector-effect="non-scaling-stroke"  transform=" translate(-1770.48, -2931.75)" d="M 1766 3053 C 1717 3046 1675 3038 1672 3036 C 1670 3033 1671 3023 1674 3013 C 1679 2998 1688 2995 1713 2998 L 1747 3002 L 1759 2901 C 1772 2806 1774 2800 1796 2800 C 1808 2800 1821 2804 1824 2809 C 1829 2816 1822 2872 1805 2977 C 1800 3007 1801 3009 1835 3016 C 1860 3020 1870 3027 1870 3041 C 1870 3051 1867 3061 1863 3063 C 1858 3065 1815 3061 1766 3053 z" stroke-linecap="round" />
</g>
		<g transform="matrix(0.13 0 0 -0.13 -0.07 -123.66)"  >
<path style="stroke: none; stroke-width: 1; stroke-dasharray: none; stroke-linecap: butt; stroke-dashoffset: 0; stroke-linejoin: miter; stroke-miterlimit: 4; fill: rgb(255,255,255); fill-rule: nonzero; opacity: 1;" vector-effect="non-scaling-stroke"  transform=" translate(-1975, -2940)" d="M 1950 2940 L 1950 2810 L 1975 2810 L 2000 2810 L 2000 2940 L 2000 3070 L 1975 3070 L 1950 3070 L 1950 2940 z" stroke-linecap="round" />
</g>
		<g transform="matrix(0.13 0 0 -0.13 20.79 -122.67)"  >
<path style="stroke: none; stroke-width: 1; stroke-dasharray: none; stroke-linecap: butt; stroke-dashoffset: 0; stroke-linejoin: miter; stroke-miterlimit: 4; fill: rgb(255,255,255); fill-rule: nonzero; opacity: 1;" vector-effect="non-scaling-stroke"  transform=" translate(-2132.79, -2932.82)" d="M 2156 3048 C 2153 3041 2147 2999 2141 2955 C 2134 2911 2125 2871 2120 2866 C 2115 2861 2098 2857 2083 2856 C 2062 2855 2055 2850 2055 2835 C 2055 2805 2138 2801 2164 2829 C 2179 2846 2219 3035 2209 3044 C 2194 3057 2159 3060 2156 3048 z" stroke-linecap="round" />
</g>
		<g transform="matrix(0.13 0 0 -0.13 55.59 -116.89)"  >
<path style="stroke: none; stroke-width: 1; stroke-dasharray: none; stroke-linecap: butt; stroke-dashoffset: 0; stroke-linejoin: miter; stroke-miterlimit: 4; fill: rgb(255,255,255); fill-rule: nonzero; opacity: 1;" vector-effect="non-scaling-stroke"  transform=" translate(-2394.94, -2888.96)" d="M 2297 2948 C 2262 2842 2262 2816 2299 2779 C 2339 2740 2409 2737 2444 2774 C 2465 2798 2527 2956 2518 2965 C 2516 2968 2503 2971 2491 2972 C 2470 2975 2464 2965 2437 2892 C 2406 2805 2384 2782 2351 2799 C 2320 2816 2320 2835 2350 2925 L 2379 3011 L 2354 3020 C 2340 3026 2328 3030 2326 3030 C 2325 3030 2312 2993 2297 2948 z" stroke-linecap="round" />
</g>
		<g transform="matrix(0.13 0 0 -0.13 -69.06 -109.32)"  >
<path style="stroke: none; stroke-width: 1; stroke-dasharray: none; stroke-linecap: butt; stroke-dashoffset: 0; stroke-linejoin: miter; stroke-miterlimit: 4; fill: rgb(255,255,255); fill-rule: nonzero; opacity: 1;" vector-effect="non-scaling-stroke"  transform=" translate(-1459.93, -2832.33)" d="M 1383 2950 C 1359 2939 1340 2926 1340 2921 C 1340 2906 1420 2707 1430 2697 C 1440 2686 1527 2724 1557 2752 C 1585 2778 1588 2830 1562 2853 C 1552 2863 1538 2870 1532 2870 C 1525 2870 1523 2882 1527 2903 C 1537 2968 1472 2989 1383 2950 z M 1470 2902 C 1470 2863 1426 2845 1415 2880 C 1406 2907 1416 2920 1446 2920 C 1462 2920 1470 2914 1470 2902 z M 1518 2803 C 1520 2790 1513 2776 1498 2766 C 1477 2751 1474 2751 1463 2767 C 1446 2789 1446 2817 1463 2824 C 1488 2834 1515 2825 1518 2803 z" stroke-linecap="round" />
</g>
		<g transform="matrix(0.13 0 0 -0.13 -3.8 39.44)"  >
<path style="stroke: none; stroke-width: 1; stroke-dasharray: none; stroke-linecap: butt; stroke-dashoffset: 0; stroke-linejoin: miter; stroke-miterlimit: 4; fill: rgb(255,255,255); fill-rule: nonzero; opacity: 1;" vector-effect="non-scaling-stroke"  transform=" translate(-1975, -1690)" d="M 2605 2839 C 2577 2811 2544 2782 2530 2775 C 2516 2768 2494 2741 2480 2716 C 2462 2683 2451 2672 2440 2676 C 2278 2746 2122 2774 1930 2767 C 1759 2761 1639 2734 1504 2671 C 1456 2648 1414 2630 1411 2630 C 1407 2630 1391 2650 1376 2674 C 1361 2699 1342 2721 1335 2724 C 1328 2726 1303 2757 1279 2792 C 1256 2827 1236 2856 1234 2858 C 1229 2865 1190 2839 1190 2828 C 1190 2823 1207 2795 1227 2767 C 1249 2737 1264 2706 1263 2691 L 1261 2665 L 1272 2693 C 1280 2715 1287 2720 1308 2718 C 1328 2716 1353 2686 1429 2576 C 1503 2468 1548 2415 1632 2336 C 1692 2281 1740 2230 1740 2222 C 1740 2214 1750 2195 1761 2178 C 1778 2155 1780 2146 1771 2137 C 1762 2128 1756 2129 1749 2143 C 1743 2152 1735 2158 1729 2155 C 1724 2151 1721 2159 1722 2172 C 1724 2205 1670 2279 1604 2333 C 1537 2389 1513 2419 1408 2573 C 1343 2668 1323 2690 1307 2688 C 1289 2685 1284 2674 1274 2610 C 1267 2569 1261 2461 1261 2372 C 1260 2224 1262 2208 1278 2204 C 1287 2201 1308 2176 1324 2147 C 1358 2086 1447 1965 1485 1930 C 1507 1909 1514 1908 1530 1918 C 1555 1933 1557 1933 1564 1914 C 1571 1895 1522 1847 1503 1855 C 1496 1857 1488 1854 1484 1849 C 1480 1842 1465 1841 1446 1845 C 1429 1848 1405 1853 1393 1854 C 1333 1862 1289 1925 1276 2022 C 1270 2060 1272 2069 1282 2065 C 1306 2056 1329 2007 1319 1988 C 1311 1973 1312 1973 1340 1986 C 1369 2001 1380 2020 1360 2020 C 1355 2020 1350 2030 1350 2043 C 1350 2070 1340 2084 1319 2092 C 1310 2096 1290 2124 1275 2157 C 1246 2214 1246 2218 1245 2390 C 1245 2486 1248 2585 1251 2610 C 1255 2635 1255 2647 1253 2638 C 1243 2598 1214 2621 1143 2723 C 1110 2771 1091 2780 1072 2757 C 1051 2732 1176 2570 1216 2570 C 1225 2570 1230 2558 1230 2539 C 1230 2513 1216 2493 1157 2431 C 937 2201 830 1938 830 1630 C 830 1311 949 1028 1177 809 C 1402 592 1658 490 1979 490 C 2292 490 2543 589 2764 800 C 2901 931 2994 1072 3055 1244 C 3101 1371 3120 1486 3120 1630 C 3120 1987 2968 2299 2678 2535 C 2658 2552 2639 2576 2635 2589 C 2628 2611 2630 2612 2654 2606 C 2675 2601 2680 2604 2685 2622 C 2695 2668 2730 2842 2730 2851 C 2730 2860 2678 2890 2663 2890 C 2658 2890 2632 2867 2605 2839 z M 2663 2788 C 2655 2744 2645 2734 2625 2750 C 2611 2762 2612 2766 2636 2792 C 2651 2807 2665 2820 2667 2820 C 2668 2820 2667 2805 2663 2788 z M 2615 2650 C 2618 2631 2628 2578 2637 2533 C 2649 2470 2651 2422 2646 2323 C 2638 2171 2638 2186 2645 2082 C 2651 2004 2649 1994 2621 1937 C 2605 1903 2569 1850 2541 1820 L 2491 1765 L 2490 1821 C 2490 1862 2484 1884 2470 1903 C 2443 1937 2445 1950 2482 1979 C 2504 1997 2514 2000 2520 1991 C 2524 1984 2531 1978 2536 1977 C 2550 1974 2548 1936 2533 1919 C 2521 1904 2522 1902 2541 1897 C 2556 1893 2569 1899 2586 1918 C 2615 1952 2616 1958 2588 1962 C 2572 1964 2564 1973 2562 1990 C 2560 2003 2551 2019 2543 2026 C 2531 2034 2530 2039 2539 2044 C 2556 2055 2601 2042 2617 2022 C 2627 2008 2629 2015 2630 2071 C 2630 2107 2625 2141 2619 2147 C 2611 2155 2611 2183 2619 2246 C 2638 2400 2633 2482 2595 2657 C 2589 2683 2564 2710 2545 2710 C 2538 2710 2527 2697 2520 2680 C 2513 2663 2500 2650 2490 2650 C 2470 2650 2423 2587 2387 2513 C 2373 2484 2347 2442 2330 2420 C 2301 2383 2298 2374 2304 2334 C 2307 2309 2306 2291 2301 2294 C 2288 2302 2264 2270 2277 2262 C 2282 2258 2290 2248 2293 2240 C 2296 2231 2299 2234 2299 2250 C 2300 2268 2303 2271 2309 2261 C 2316 2250 2320 2251 2328 2266 C 2334 2276 2342 2281 2346 2277 C 2350 2273 2348 2264 2342 2258 C 2325 2241 2327 2205 2346 2168 C 2355 2151 2359 2127 2356 2115 C 2353 2102 2354 2088 2360 2085 C 2374 2076 2373 2030 2358 2030 C 2351 2030 2334 2042 2319 2056 C 2297 2077 2294 2086 2302 2100 C 2310 2112 2310 2131 2302 2166 L 2291 2215 L 2295 2165 C 2300 2110 2292 2087 2272 2099 C 2262 2105 2260 2133 2263 2211 C 2268 2341 2278 2379 2330 2452 C 2352 2483 2374 2521 2380 2534 C 2393 2569 2497 2721 2523 2743 C 2544 2762 2545 2761 2577 2723 C 2595 2702 2612 2669 2615 2650 z M 2635 2691 C 2638 2686 2636 2679 2631 2676 C 2626 2673 2620 2677 2616 2685 C 2610 2701 2625 2706 2635 2691 z M 2484 2205 C 2487 2197 2501 2190 2515 2190 C 2534 2190 2540 2185 2540 2170 C 2540 2142 2517 2100 2490 2075 C 2469 2056 2469 2059 2495 2108 C 2510 2137 2521 2162 2519 2163 C 2517 2164 2490 2177 2460 2192 L 2405 2219 L 2441 2219 C 2465 2220 2480 2215 2484 2205 z M 1860 2142 C 1860 2132 1849 2113 1835 2100 C 1794 2061 1807 2055 1849 2093 C 1895 2134 1929 2154 1938 2145 C 1942 2142 1940 2136 1935 2132 C 1929 2128 1912 2109 1895 2090 L 1865 2055 L 1900 2086 C 1936 2118 1990 2139 1990 2120 C 1990 2115 1977 2104 1961 2095 C 1944 2087 1928 2074 1924 2068 C 1918 2058 1920 2057 1931 2068 C 1947 2083 1984 2084 2013 2069 C 2034 2057 2034 2058 2018 2077 C 1996 2101 1995 2114 2016 2130 C 2029 2141 2032 2140 2037 2122 C 2040 2109 2050 2100 2061 2100 C 2072 2100 2080 2094 2080 2088 C 2080 2081 2098 2062 2120 2046 C 2141 2030 2164 2004 2169 1988 C 2182 1952 2189 1952 2183 1988 C 2180 2003 2160 2031 2137 2052 L 2095 2089 L 2135 2091 C 2170 2092 2167 2094 2113 2102 C 2078 2107 2050 2116 2050 2122 C 2050 2127 2059 2128 2073 2124 C 2098 2115 2131 2116 2176 2125 C 2203 2131 2215 2125 2271 2078 C 2350 2013 2437 1924 2454 1890 C 2462 1876 2471 1840 2475 1810 C 2479 1780 2484 1746 2487 1735 C 2489 1724 2493 1686 2496 1650 C 2503 1572 2490 1532 2435 1456 L 2395 1401 L 2365 1429 C 2294 1495 2282 1500 2199 1500 C 2156 1500 2118 1495 2115 1490 C 2111 1483 2103 1483 2090 1490 C 2065 1503 2030 1503 2030 1489 C 2030 1483 2020 1470 2009 1461 C 1988 1445 1985 1445 1944 1463 C 1909 1480 1903 1486 1910 1501 C 1915 1510 1922 1544 1925 1576 C 1931 1631 1930 1634 1916 1616 C 1907 1605 1900 1589 1900 1580 C 1900 1560 1867 1528 1823 1506 C 1804 1497 1788 1479 1784 1465 C 1777 1438 1754 1415 1747 1427 C 1737 1444 1780 1512 1829 1556 C 1878 1600 1898 1639 1865 1626 C 1856 1623 1850 1626 1850 1635 C 1850 1643 1845 1650 1838 1650 C 1829 1650 1829 1653 1838 1662 C 1847 1671 1843 1676 1818 1684 C 1801 1690 1784 1701 1782 1709 C 1779 1717 1782 1720 1789 1716 C 1795 1712 1800 1715 1800 1724 C 1800 1733 1809 1740 1820 1740 C 1845 1740 1846 1723 1823 1717 C 1812 1714 1816 1712 1833 1711 C 1848 1711 1860 1714 1860 1720 C 1860 1725 1876 1737 1897 1745 C 1931 1759 1935 1759 1955 1740 C 1983 1714 1999 1714 1975 1740 C 1957 1760 1957 1760 1991 1755 L 2025 1749 L 1993 1764 C 1975 1772 1960 1781 1960 1784 C 1960 1786 1957 1796 1953 1805 C 1947 1821 1949 1821 1976 1805 L 2005 1788 L 1977 1810 C 1954 1829 1950 1837 1956 1866 C 1960 1890 1958 1904 1945 1916 C 1932 1929 1931 1935 1941 1941 C 1948 1945 1957 1947 1961 1944 C 1965 1942 1967 1948 1966 1957 C 1963 1978 1904 1993 1878 1979 C 1864 1971 1862 1973 1867 1986 C 1873 2001 1870 2001 1841 1984 C 1824 1974 1814 1964 1820 1962 C 1825 1960 1828 1955 1825 1950 C 1823 1946 1830 1942 1843 1942 C 1876 1942 1920 1922 1920 1908 C 1920 1901 1910 1886 1897 1875 C 1879 1858 1865 1855 1822 1858 C 1778 1861 1771 1864 1781 1876 C 1787 1884 1791 1890 1789 1891 C 1787 1891 1767 1893 1745 1895 C 1723 1897 1691 1901 1675 1905 C 1647 1911 1643 1909 1622 1866 C 1580 1779 1600 1694 1682 1604 C 1706 1577 1714 1564 1701 1573 C 1676 1590 1606 1671 1589 1701 C 1578 1722 1592 1843 1611 1885 C 1627 1921 1684 2005 1715 2040 C 1728 2054 1745 2080 1754 2098 C 1768 2124 1775 2129 1794 2124 C 1812 2120 1821 2124 1830 2139 C 1843 2165 1860 2166 1860 2142 z M 1386 2094 C 1382 2085 1377 2079 1375 2082 C 1372 2085 1372 2095 1376 2104 C 1380 2113 1385 2119 1387 2116 C 1390 2113 1390 2103 1386 2094 z M 1490 2021 C 1517 1994 1540 1969 1540 1966 C 1540 1949 1511 1964 1482 1997 C 1464 2018 1451 2029 1455 2023 C 1465 2003 1449 2008 1423 2032 C 1395 2058 1394 2070 1420 2070 C 1431 2070 1462 2048 1490 2021 z M 2437 1971 C 2437 1947 2434 1944 2423 1955 C 2416 1963 2413 1976 2416 1984 C 2426 2009 2437 2002 2437 1971 z M 1937 1964 C 1934 1961 1925 1960 1918 1963 C 1910 1966 1913 1969 1924 1969 C 1935 1970 1941 1967 1937 1964 z M 1821 1819 C 1829 1804 1839 1799 1856 1803 C 1878 1807 1884 1802 1878 1783 C 1876 1778 1872 1776 1868 1778 C 1863 1779 1860 1776 1860 1772 C 1860 1762 1819 1763 1803 1773 C 1788 1783 1785 1840 1800 1840 C 1805 1840 1814 1831 1821 1819 z M 1865 1830 C 1868 1825 1864 1820 1855 1820 C 1846 1820 1842 1825 1845 1830 C 1848 1836 1853 1840 1855 1840 C 1857 1840 1862 1836 1865 1830 z M 2329 1449 C 2358 1428 2374 1400 2349 1416 C 2328 1429 2265 1441 2203 1444 C 2153 1447 2137 1444 2121 1428 C 2095 1404 2094 1364 2119 1350 C 2148 1335 2190 1338 2195 1355 C 2209 1399 2212 1405 2217 1392 C 2234 1347 2185 1303 2134 1316 C 2093 1326 2075 1364 2088 1408 C 2104 1461 2134 1475 2223 1474 C 2284 1473 2303 1468 2329 1449 z M 2040 1450 C 2040 1445 2036 1440 2030 1440 C 2025 1440 2020 1445 2020 1450 C 2020 1456 2025 1460 2030 1460 C 2036 1460 2040 1456 2040 1450 z M 2504 1279 C 2524 1187 2540 1100 2540 1085 C 2540 1067 2554 1042 2583 1010 C 2628 959 2683 872 2702 823 C 2713 795 2711 790 2684 766 C 2619 708 2550 668 2450 631 C 2340 590 2210 557 2210 569 C 2210 573 2237 616 2271 663 C 2304 711 2328 750 2324 750 C 2320 750 2288 734 2252 714 C 2205 688 2186 681 2180 690 C 2165 714 2159 868 2171 912 C 2184 962 2220 1035 2248 1070 C 2264 1089 2275 1094 2311 1092 C 2335 1091 2361 1094 2369 1099 C 2387 1111 2411 1269 2398 1290 C 2390 1302 2390 1302 2394 1287 C 2408 1241 2347 1212 2304 1245 C 2282 1262 2292 1265 2321 1249 C 2348 1235 2385 1247 2370 1265 C 2363 1273 2361 1284 2364 1289 C 2373 1303 2349 1315 2317 1311 C 2278 1307 2260 1326 2261 1369 L 2263 1405 L 2269 1370 C 2274 1341 2280 1334 2303 1332 C 2337 1328 2360 1345 2361 1374 C 2362 1385 2366 1376 2372 1353 C 2382 1304 2397 1296 2397 1338 C 2397 1370 2449 1465 2460 1453 C 2464 1449 2484 1370 2504 1279 z M 1963 1363 C 1951 1346 1944 1342 1941 1351 C 1939 1358 1942 1366 1949 1368 C 1955 1370 1960 1378 1960 1386 C 1960 1395 1964 1398 1970 1395 C 1976 1391 1973 1379 1963 1363 z M 1777 1373 C 1784 1363 1804 1330 1820 1299 C 1836 1268 1856 1240 1864 1237 C 1873 1233 1877 1224 1874 1215 C 1869 1203 1865 1202 1854 1211 C 1837 1225 1750 1367 1750 1380 C 1750 1395 1761 1392 1777 1373 z M 2040 1322 C 2033 1319 2021 1325 2012 1335 C 1996 1350 1997 1351 2024 1339 C 2039 1332 2047 1324 2040 1322 z M 2080 1238 C 2080 1232 2073 1231 2064 1234 C 2055 1237 2041 1240 2032 1240 C 2023 1240 2002 1251 1985 1264 L 1955 1288 L 2018 1268 C 2052 1256 2080 1243 2080 1238 z M 2335 1195 C 2354 1180 2353 1180 2323 1194 C 2306 1203 2288 1215 2284 1221 C 2276 1234 2305 1220 2335 1195 z M 1946 1195 C 1966 1181 1996 1170 2011 1170 C 2027 1170 2040 1166 2040 1161 C 2040 1156 2032 1153 2023 1155 C 2013 1157 1993 1161 1979 1164 C 1965 1167 1941 1181 1924 1195 C 1887 1227 1898 1227 1946 1195 z M 2044 1209 C 2064 1209 2065 1208 2045 1200 C 2015 1187 1996 1188 1974 1206 C 1956 1221 1957 1221 1989 1216 C 2007 1213 2032 1210 2044 1209 z M 2029 1132 C 2070 1129 2096 1133 2118 1144 C 2145 1158 2150 1158 2150 1146 C 2150 1126 2140 1121 2076 1109 C 2013 1098 1977 1108 1923 1154 C 1875 1194 1882 1207 1930 1169 C 1963 1142 1982 1135 2029 1132 z M 2351 1158 C 2376 1174 2380 1173 2380 1152 C 2380 1141 2371 1125 2360 1115 C 2349 1105 2340 1101 2340 1106 C 2340 1111 2327 1122 2311 1132 C 2295 1141 2276 1158 2270 1171 L 2258 1193 L 2295 1170 C 2326 1151 2336 1149 2351 1158 z M 1865 1140 C 1855 1129 1850 1120 1854 1120 C 1858 1120 1856 1114 1850 1108 C 1786 1032 1788 1033 1795 1060 C 1799 1074 1807 1092 1813 1100 C 1837 1133 1864 1160 1873 1160 C 1879 1160 1875 1151 1865 1140 z M 2163 1044 C 2166 1040 2158 1026 2145 1011 C 2131 997 2109 972 2096 955 C 2073 928 2071 927 2070 946 C 2070 957 2086 985 2106 1008 C 2141 1050 2151 1056 2163 1044 z M 2141 962 C 2119 919 2090 889 2090 910 C 2090 922 2147 1000 2156 1000 C 2158 1000 2152 983 2141 962 z M 2080 880 C 2080 875 2076 870 2070 870 C 2065 870 2060 875 2060 880 C 2060 886 2065 890 2070 890 C 2076 890 2080 886 2080 880 z" stroke-linecap="round" />
</g>
		<g transform="matrix(0.13 0 0 -0.13 53.06 34.86)"  >
<path style="stroke: none; stroke-width: 1; stroke-dasharray: none; stroke-linecap: butt; stroke-dashoffset: 0; stroke-linejoin: miter; stroke-miterlimit: 4; fill: rgb(255,255,255); fill-rule: nonzero; opacity: 1;" vector-effect="non-scaling-stroke"  transform=" translate(-2375.17, -1751.22)" d="M 2400 1875 C 2400 1871 2411 1855 2425 1838 C 2451 1807 2460 1780 2438 1798 C 2431 1803 2411 1811 2394 1814 C 2367 1820 2358 1815 2318 1775 C 2271 1729 2268 1718 2309 1746 C 2331 1762 2332 1762 2321 1742 C 2315 1730 2305 1718 2300 1715 C 2294 1712 2290 1704 2290 1697 C 2290 1691 2297 1696 2306 1708 L 2321 1730 L 2347 1710 C 2373 1690 2436 1681 2425 1700 C 2422 1706 2407 1710 2393 1710 C 2378 1710 2370 1713 2373 1717 C 2377 1720 2371 1730 2360 1737 C 2349 1745 2342 1756 2346 1762 C 2350 1768 2356 1768 2363 1761 C 2369 1755 2383 1750 2393 1750 C 2409 1750 2410 1747 2400 1735 C 2390 1723 2390 1720 2403 1720 C 2412 1720 2424 1729 2430 1741 C 2437 1752 2444 1759 2447 1756 C 2451 1753 2445 1741 2435 1730 C 2416 1709 2428 1702 2448 1722 C 2457 1731 2460 1731 2460 1722 C 2460 1715 2456 1710 2450 1710 C 2445 1710 2441 1705 2443 1698 C 2444 1692 2434 1680 2420 1672 C 2397 1659 2397 1659 2417 1663 C 2436 1667 2438 1665 2430 1650 C 2424 1639 2424 1629 2429 1626 C 2441 1618 2470 1699 2470 1743 C 2470 1783 2442 1847 2416 1869 C 2407 1877 2400 1879 2400 1875 z M 2400 1780 C 2400 1775 2393 1773 2385 1776 C 2377 1780 2373 1786 2376 1791 C 2382 1802 2400 1793 2400 1780 z" stroke-linecap="round" />
</g>
		<g transform="matrix(0.13 0 0 -0.13 -6.2 40.26)"  >
<path style="stroke: none; stroke-width: 1; stroke-dasharray: none; stroke-linecap: butt; stroke-dashoffset: 0; stroke-linejoin: miter; stroke-miterlimit: 4; fill: rgb(255,255,255); fill-rule: nonzero; opacity: 1;" vector-effect="non-scaling-stroke"  transform=" translate(-1928.82, -1713.57)" d="M 1910 1721 C 1910 1711 1940 1697 1947 1704 C 1950 1706 1942 1713 1931 1720 C 1919 1726 1910 1727 1910 1721 z" stroke-linecap="round" />
</g>
		<g transform="matrix(0.13 0 0 -0.13 11.57 60.45)"  >
<path style="stroke: none; stroke-width: 1; stroke-dasharray: none; stroke-linecap: butt; stroke-dashoffset: 0; stroke-linejoin: miter; stroke-miterlimit: 4; fill: rgb(255,255,255); fill-rule: nonzero; opacity: 1;" vector-effect="non-scaling-stroke"  transform=" translate(-2063.04, -1560.94)" d="M 2019 1607 C 2008 1591 2006 1575 2011 1550 C 2015 1531 2016 1512 2014 1508 C 2005 1494 2027 1500 2051 1518 C 2064 1527 2084 1540 2095 1546 C 2119 1559 2126 1580 2106 1580 C 2098 1580 2085 1589 2077 1601 C 2066 1616 2060 1618 2054 1609 C 2048 1599 2045 1600 2041 1612 C 2036 1626 2033 1625 2019 1607 z" stroke-linecap="round" />
</g>
		<g transform="matrix(0.13 0 0 -0.13 120.34 -75.44)"  >
<path style="stroke: none; stroke-width: 1; stroke-dasharray: none; stroke-linecap: butt; stroke-dashoffset: 0; stroke-linejoin: miter; stroke-miterlimit: 4; fill: rgb(255,255,255); fill-rule: nonzero; opacity: 1;" vector-effect="non-scaling-stroke"  transform=" translate(-2881.27, -2577.5)" d="M 2801 2649 C 2731 2574 2720 2557 2730 2545 C 2751 2520 2766 2528 2820 2590 C 2849 2624 2874 2649 2875 2648 C 2877 2646 2867 2603 2853 2551 L 2828 2457 L 2849 2436 L 2870 2416 L 2916 2460 C 2941 2485 2980 2527 3002 2553 C 3041 2599 3042 2602 3026 2618 C 3009 2634 3005 2631 2951 2573 L 2894 2511 L 2918 2605 L 2943 2699 L 2919 2719 C 2906 2730 2893 2739 2890 2739 C 2887 2739 2847 2698 2801 2649 z" stroke-linecap="round" />
</g>
		<g transform="matrix(0.13 0 0 -0.13 -126.99 -65.71)"  >
<path style="stroke: none; stroke-width: 1; stroke-dasharray: none; stroke-linecap: butt; stroke-dashoffset: 0; stroke-linejoin: miter; stroke-miterlimit: 4; fill: rgb(255,255,255); fill-rule: nonzero; opacity: 1;" vector-effect="non-scaling-stroke"  transform=" translate(-1025.99, -2505.98)" d="M 895 2590 C 877 2570 878 2568 965 2487 C 1013 2442 1056 2404 1059 2402 C 1063 2401 1090 2425 1120 2456 C 1173 2510 1174 2512 1155 2526 C 1136 2540 1133 2538 1101 2504 L 1068 2468 L 996 2539 C 957 2578 922 2610 919 2610 C 916 2610 905 2601 895 2590 z" stroke-linecap="round" />
</g>
		<g transform="matrix(0.13 0 0 -0.13 -146.14 -45.64)"  >
<path style="stroke: none; stroke-width: 1; stroke-dasharray: none; stroke-linecap: butt; stroke-dashoffset: 0; stroke-linejoin: miter; stroke-miterlimit: 4; fill: rgb(255,255,255); fill-rule: nonzero; opacity: 1;" vector-effect="non-scaling-stroke"  transform=" translate(-882.15, -2355.05)" d="M 780 2450 C 729 2379 747 2292 820 2251 C 867 2225 906 2224 947 2250 C 988 2274 1028 2349 1008 2361 C 987 2374 970 2371 970 2355 C 970 2346 959 2328 945 2315 C 911 2280 867 2282 829 2319 C 793 2355 792 2389 825 2428 C 843 2450 846 2460 838 2468 C 819 2487 803 2482 780 2450 z" stroke-linecap="round" />
</g>
		<g transform="matrix(0.13 0 0 -0.13 143.18 -40.96)"  >
<path style="stroke: none; stroke-width: 1; stroke-dasharray: none; stroke-linecap: butt; stroke-dashoffset: 0; stroke-linejoin: miter; stroke-miterlimit: 4; fill: rgb(255,255,255); fill-rule: nonzero; opacity: 1;" vector-effect="non-scaling-stroke"  transform=" translate(-3052.45, -2319.78)" d="M 3016 2414 C 2956 2395 2905 2379 2904 2377 C 2903 2376 2909 2364 2919 2351 C 2935 2330 2941 2328 2967 2338 C 2995 2347 3000 2346 3020 2318 L 3042 2288 L 3021 2266 C 2996 2239 2995 2231 3018 2204 C 3035 2182 3036 2183 3118 2286 L 3201 2390 L 3184 2420 C 3161 2457 3154 2457 3016 2414 z M 3102 2358 C 3075 2330 3068 2327 3060 2340 C 3045 2363 3048 2367 3078 2378 C 3129 2397 3136 2391 3102 2358 z" stroke-linecap="round" />
</g>
		<g transform="matrix(0.13 0 0 -0.13 -173.67 26.48)"  >
<path style="stroke: none; stroke-width: 1; stroke-dasharray: none; stroke-linecap: butt; stroke-dashoffset: 0; stroke-linejoin: miter; stroke-miterlimit: 4; fill: rgb(255,255,255); fill-rule: nonzero; opacity: 1;" vector-effect="non-scaling-stroke"  transform=" translate(-673.69, -1815.88)" d="M 636 1854 C 599 1817 635 1751 685 1764 C 699 1768 716 1781 722 1795 C 745 1847 676 1895 636 1854 z" stroke-linecap="round" />
</g>
		<g transform="matrix(0.13 0 0 -0.13 175.71 26.47)"  >
<path style="stroke: none; stroke-width: 1; stroke-dasharray: none; stroke-linecap: butt; stroke-dashoffset: 0; stroke-linejoin: miter; stroke-miterlimit: 4; fill: rgb(255,255,255); fill-rule: nonzero; opacity: 1;" vector-effect="non-scaling-stroke"  transform=" translate(-3294.04, -1815.96)" d="M 3256 1854 C 3234 1833 3236 1797 3260 1775 C 3306 1734 3376 1804 3335 1850 C 3313 1874 3277 1876 3256 1854 z" stroke-linecap="round" />
</g>
		<g transform="matrix(0.13 0 0 -0.13 -173.31 87.3)"  >
<path style="stroke: none; stroke-width: 1; stroke-dasharray: none; stroke-linecap: butt; stroke-dashoffset: 0; stroke-linejoin: miter; stroke-miterlimit: 4; fill: rgb(255,255,255); fill-rule: nonzero; opacity: 1;" vector-effect="non-scaling-stroke"  transform=" translate(-677.47, -1359.04)" d="M 715 1420 C 689 1392 668 1388 627 1405 C 580 1424 578 1424 582 1398 C 584 1383 595 1374 619 1367 L 653 1359 L 624 1339 C 608 1329 595 1316 596 1310 C 597 1305 598 1293 599 1284 C 600 1272 611 1278 641 1304 C 682 1339 683 1339 718 1325 C 765 1305 779 1306 773 1329 C 770 1341 756 1352 737 1356 L 706 1363 L 733 1384 C 761 1407 769 1440 747 1440 C 739 1440 725 1431 715 1420 z" stroke-linecap="round" />
</g>
		<g transform="matrix(0.13 0 0 -0.13 170.01 93.04)"  >
<path style="stroke: none; stroke-width: 1; stroke-dasharray: none; stroke-linecap: butt; stroke-dashoffset: 0; stroke-linejoin: miter; stroke-miterlimit: 4; fill: rgb(255,255,255); fill-rule: nonzero; opacity: 1;" vector-effect="non-scaling-stroke"  transform=" translate(-3252.88, -1314.81)" d="M 3185 1388 C 3181 1360 3167 1306 3155 1269 C 3142 1232 3134 1199 3138 1196 C 3149 1184 3170 1190 3170 1205 C 3170 1230 3192 1232 3254 1210 C 3314 1190 3330 1191 3330 1215 C 3330 1223 3302 1238 3261 1251 C 3196 1272 3192 1275 3200 1296 C 3206 1311 3205 1321 3197 1324 C 3190 1328 3196 1328 3210 1326 C 3224 1323 3263 1318 3298 1314 C 3354 1308 3360 1309 3360 1326 C 3360 1337 3363 1362 3366 1383 C 3371 1413 3370 1420 3357 1420 C 3347 1420 3339 1408 3334 1385 C 3330 1360 3322 1350 3309 1350 C 3296 1350 3290 1359 3288 1387 C 3285 1428 3260 1446 3260 1408 C 3260 1377 3246 1358 3229 1365 C 3219 1369 3215 1381 3218 1405 C 3221 1431 3218 1440 3207 1440 C 3196 1440 3190 1425 3185 1388 z" stroke-linecap="round" />
</g>
		<g transform="matrix(0.13 0 0 -0.13 -167.39 107.87)"  >
<path style="stroke: none; stroke-width: 1; stroke-dasharray: none; stroke-linecap: butt; stroke-dashoffset: 0; stroke-linejoin: miter; stroke-miterlimit: 4; fill: rgb(255,255,255); fill-rule: nonzero; opacity: 1;" vector-effect="non-scaling-stroke"  transform=" translate(-721.76, -1204.61)" d="M 656 1269 C 621 1241 619 1174 653 1142 C 698 1099 789 1120 811 1177 C 823 1209 806 1266 780 1280 C 748 1297 685 1292 656 1269 z M 774 1228 C 790 1202 771 1177 726 1166 C 681 1154 654 1174 665 1210 C 678 1250 752 1262 774 1228 z" stroke-linecap="round" />
</g>
		<g transform="matrix(0.13 0 0 -0.13 160.23 124.44)"  >
<path style="stroke: none; stroke-width: 1; stroke-dasharray: none; stroke-linecap: butt; stroke-dashoffset: 0; stroke-linejoin: miter; stroke-miterlimit: 4; fill: rgb(255,255,255); fill-rule: nonzero; opacity: 1;" vector-effect="non-scaling-stroke"  transform=" translate(-3179.3, -1079.99)" d="M 3117 1166 C 3113 1156 3128 1144 3167 1128 L 3224 1105 L 3156 1099 C 3092 1094 3070 1082 3070 1055 C 3070 1046 3214 979 3233 980 C 3237 980 3240 987 3240 996 C 3240 1005 3219 1020 3190 1033 C 3162 1046 3142 1059 3146 1063 C 3150 1067 3179 1070 3211 1070 C 3260 1070 3271 1073 3280 1091 C 3287 1102 3290 1113 3288 1114 C 3277 1122 3138 1180 3131 1180 C 3126 1180 3120 1174 3117 1166 z" stroke-linecap="round" />
</g>
		<g transform="matrix(0.13 0 0 -0.13 -161.17 128.85)"  >
<path style="stroke: none; stroke-width: 1; stroke-dasharray: none; stroke-linecap: butt; stroke-dashoffset: 0; stroke-linejoin: miter; stroke-miterlimit: 4; fill: rgb(255,255,255); fill-rule: nonzero; opacity: 1;" vector-effect="non-scaling-stroke"  transform=" translate(-768.25, -1047.39)" d="M 755 1098 C 717 1081 684 1067 682 1065 C 681 1064 689 1040 701 1012 C 716 976 726 963 737 967 C 751 973 751 985 735 1023 C 729 1037 740 1046 794 1070 C 842 1092 858 1104 854 1115 C 846 1136 835 1134 755 1098 z" stroke-linecap="round" />
</g>
		<g transform="matrix(0.13 0 0 -0.13 150.03 143.08)"  >
<path style="stroke: none; stroke-width: 1; stroke-dasharray: none; stroke-linecap: butt; stroke-dashoffset: 0; stroke-linejoin: miter; stroke-miterlimit: 4; fill: rgb(255,255,255); fill-rule: nonzero; opacity: 1;" vector-effect="non-scaling-stroke"  transform=" translate(-3102.66, -940.44)" d="M 3026 990 C 3012 968 3000 949 3000 946 C 3000 940 3151 847 3154 851 C 3175 875 3209 943 3205 950 C 3194 968 3181 961 3165 930 C 3152 904 3146 901 3130 910 C 3111 920 3111 923 3125 950 C 3146 990 3124 1003 3097 966 C 3082 945 3075 942 3064 951 C 3052 961 3052 966 3065 986 C 3084 1015 3084 1030 3066 1030 C 3059 1030 3041 1012 3026 990 z" stroke-linecap="round" />
</g>
		<g transform="matrix(0.13 0 0 -0.13 -149.55 145.25)"  >
<path style="stroke: none; stroke-width: 1; stroke-dasharray: none; stroke-linecap: butt; stroke-dashoffset: 0; stroke-linejoin: miter; stroke-miterlimit: 4; fill: rgb(255,255,255); fill-rule: nonzero; opacity: 1;" vector-effect="non-scaling-stroke"  transform=" translate(-855.58, -924.17)" d="M 833 1008 C 765 990 740 915 784 863 C 803 841 816 835 849 835 C 930 835 978 922 930 982 C 907 1012 878 1020 833 1008 z M 905 935 C 905 911 898 902 871 888 C 846 876 832 874 818 881 C 775 904 819 973 875 968 C 901 965 905 961 905 935 z" stroke-linecap="round" />
</g>
		<g transform="matrix(0.13 0 0 -0.13 141.83 155.59)"  >
<path style="stroke: none; stroke-width: 1; stroke-dasharray: none; stroke-linecap: butt; stroke-dashoffset: 0; stroke-linejoin: miter; stroke-miterlimit: 4; fill: rgb(255,255,255); fill-rule: nonzero; opacity: 1;" vector-effect="non-scaling-stroke"  transform=" translate(-3040.66, -847.31)" d="M 2963 894 C 2960 885 2961 875 2966 871 C 3103 777 3120 769 3120 803 C 3120 814 2990 910 2975 910 C 2972 910 2967 903 2963 894 z" stroke-linecap="round" />
</g>
		<g transform="matrix(0.13 0 0 -0.13 -139.1 159.9)"  >
<path style="stroke: none; stroke-width: 1; stroke-dasharray: none; stroke-linecap: butt; stroke-dashoffset: 0; stroke-linejoin: miter; stroke-miterlimit: 4; fill: rgb(255,255,255); fill-rule: nonzero; opacity: 1;" vector-effect="non-scaling-stroke"  transform=" translate(-933.54, -814.96)" d="M 918 829 C 875 797 853 773 857 764 C 865 742 878 747 951 802 C 1003 842 1017 857 1008 867 C 993 886 990 885 918 829 z" stroke-linecap="round" />
</g>
		<g transform="matrix(0.13 0 0 -0.13 -127.14 168.88)"  >
<path style="stroke: none; stroke-width: 1; stroke-dasharray: none; stroke-linecap: butt; stroke-dashoffset: 0; stroke-linejoin: miter; stroke-miterlimit: 4; fill: rgb(255,255,255); fill-rule: nonzero; opacity: 1;" vector-effect="non-scaling-stroke"  transform=" translate(-1023.68, -747.07)" d="M 1012 828 C 1003 819 1004 813 1016 799 C 1030 783 1027 778 981 735 C 926 684 921 673 946 663 C 956 659 978 674 1010 705 C 1059 753 1060 753 1080 735 C 1096 721 1103 719 1112 728 C 1122 738 1113 752 1074 790 C 1035 829 1022 838 1012 828 z" stroke-linecap="round" />
</g>
		<g transform="matrix(0.13 0 0 -0.13 133.22 169.87)"  >
<path style="stroke: none; stroke-width: 1; stroke-dasharray: none; stroke-linecap: butt; stroke-dashoffset: 0; stroke-linejoin: miter; stroke-miterlimit: 4; fill: rgb(255,255,255); fill-rule: nonzero; opacity: 1;" vector-effect="non-scaling-stroke"  transform=" translate(-2976.44, -740)" d="M 2881 796 C 2872 785 2882 771 2937 726 C 2974 695 3007 670 3011 670 C 3014 670 3031 688 3049 711 C 3075 742 3080 754 3070 763 C 3061 772 3053 768 3034 747 L 3009 718 L 2956 764 C 2926 789 2900 810 2897 810 C 2895 810 2887 804 2881 796 z" stroke-linecap="round" />
</g>
		<g transform="matrix(0.13 0 0 -0.13 120.29 184.47)"  >
<path style="stroke: none; stroke-width: 1; stroke-dasharray: none; stroke-linecap: butt; stroke-dashoffset: 0; stroke-linejoin: miter; stroke-miterlimit: 4; fill: rgb(255,255,255); fill-rule: nonzero; opacity: 1;" vector-effect="non-scaling-stroke"  transform=" translate(-2879.57, -629.8)" d="M 2801 719 L 2779 701 L 2821 618 C 2844 572 2864 533 2866 531 C 2869 528 2878 533 2886 542 C 2899 555 2900 562 2890 580 C 2880 598 2881 605 2894 618 C 2906 630 2914 631 2934 622 C 2954 613 2961 614 2974 629 C 2988 645 2983 649 2906 691 C 2825 736 2822 736 2801 719 z M 2861 669 C 2872 664 2878 655 2875 649 C 2866 635 2856 638 2842 660 C 2828 683 2832 685 2861 669 z" stroke-linecap="round" />
</g>
		<g transform="matrix(0.13 0 0 -0.13 -115.25 184.95)"  >
<path style="stroke: none; stroke-width: 1; stroke-dasharray: none; stroke-linecap: butt; stroke-dashoffset: 0; stroke-linejoin: miter; stroke-miterlimit: 4; fill: rgb(255,255,255); fill-rule: nonzero; opacity: 1;" vector-effect="non-scaling-stroke"  transform=" translate(-1113.1, -626.16)" d="M 1114 719 C 1111 713 1120 697 1136 685 C 1169 659 1170 660 1076 636 C 1044 628 1014 618 1010 613 C 997 600 1098 517 1117 524 C 1131 530 1128 536 1101 564 L 1069 597 L 1139 615 C 1178 624 1213 637 1217 643 C 1220 649 1204 671 1179 692 C 1131 733 1125 736 1114 719 z" stroke-linecap="round" />
</g>
		<g transform="matrix(0.13 0 0 -0.13 102.98 193.19)"  >
<path style="stroke: none; stroke-width: 1; stroke-dasharray: none; stroke-linecap: butt; stroke-dashoffset: 0; stroke-linejoin: miter; stroke-miterlimit: 4; fill: rgb(255,255,255); fill-rule: nonzero; opacity: 1;" vector-effect="non-scaling-stroke"  transform=" translate(-2749.38, -564.43)" d="M 2691 629 C 2604 543 2725 414 2817 494 C 2839 514 2842 521 2833 531 C 2823 541 2817 540 2802 527 C 2792 518 2772 510 2758 510 C 2702 510 2679 586 2725 616 C 2752 634 2759 660 2736 660 C 2728 660 2708 646 2691 629 z" stroke-linecap="round" />
</g>
		<g transform="matrix(0.13 0 0 -0.13 -97.09 199.31)"  >
<path style="stroke: none; stroke-width: 1; stroke-dasharray: none; stroke-linecap: butt; stroke-dashoffset: 0; stroke-linejoin: miter; stroke-miterlimit: 4; fill: rgb(255,255,255); fill-rule: nonzero; opacity: 1;" vector-effect="non-scaling-stroke"  transform=" translate(-1248.88, -518.64)" d="M 1186 579 C 1148 534 1151 490 1196 451 C 1229 421 1250 418 1250 442 C 1250 447 1239 461 1224 472 C 1192 498 1195 536 1232 563 L 1259 583 L 1294 562 C 1339 535 1355 553 1316 587 C 1275 622 1219 619 1186 579 z" stroke-linecap="round" />
</g>
		<g transform="matrix(0.13 0 0 -0.13 -78.07 207.12)"  >
<path style="stroke: none; stroke-width: 1; stroke-dasharray: none; stroke-linecap: butt; stroke-dashoffset: 0; stroke-linejoin: miter; stroke-miterlimit: 4; fill: rgb(255,255,255); fill-rule: nonzero; opacity: 1;" vector-effect="non-scaling-stroke"  transform=" translate(-1391.63, -459.91)" d="M 1327 505 C 1312 474 1300 439 1300 425 C 1300 392 1337 360 1375 360 C 1411 360 1425 373 1464 444 C 1484 482 1488 495 1478 502 C 1457 515 1455 512 1427 461 C 1396 404 1376 386 1355 394 C 1333 402 1337 434 1365 491 C 1379 518 1388 545 1385 550 C 1371 572 1353 557 1327 505 z" stroke-linecap="round" />
</g>
		<g transform="matrix(0.13 0 0 -0.13 77.64 209.22)"  >
<path style="stroke: none; stroke-width: 1; stroke-dasharray: none; stroke-linecap: butt; stroke-dashoffset: 0; stroke-linejoin: miter; stroke-miterlimit: 4; fill: rgb(255,255,255); fill-rule: nonzero; opacity: 1;" vector-effect="non-scaling-stroke"  transform=" translate(-2559.5, -444.03)" d="M 2512 524 L 2469 499 L 2511 420 L 2553 341 L 2602 366 C 2628 379 2650 394 2650 400 C 2650 418 2630 420 2606 405 C 2592 396 2576 391 2570 395 C 2552 406 2559 430 2585 442 C 2631 463 2596 486 2549 466 C 2539 461 2530 465 2527 474 C 2523 485 2531 495 2551 506 C 2579 520 2586 540 2564 547 C 2559 548 2536 538 2512 524 z" stroke-linecap="round" />
</g>
		<g transform="matrix(0.13 0 0 -0.13 -63.65 215.28)"  >
<path style="stroke: none; stroke-width: 1; stroke-dasharray: none; stroke-linecap: butt; stroke-dashoffset: 0; stroke-linejoin: miter; stroke-miterlimit: 4; fill: rgb(255,255,255); fill-rule: nonzero; opacity: 1;" vector-effect="non-scaling-stroke"  transform=" translate(-1498.65, -398.97)" d="M 1481 410 C 1463 366 1451 326 1455 320 C 1470 295 1489 316 1519 392 C 1544 455 1548 475 1538 482 C 1517 495 1515 493 1481 410 z" stroke-linecap="round" />
</g>
		<g transform="matrix(0.13 0 0 -0.13 57.03 218.63)"  >
<path style="stroke: none; stroke-width: 1; stroke-dasharray: none; stroke-linecap: butt; stroke-dashoffset: 0; stroke-linejoin: miter; stroke-miterlimit: 4; fill: rgb(255,255,255); fill-rule: nonzero; opacity: 1;" vector-effect="non-scaling-stroke"  transform=" translate(-2405, -373.7)" d="M 2338 458 C 2322 453 2310 445 2310 442 C 2310 438 2323 399 2339 355 C 2365 283 2370 275 2391 279 C 2450 287 2500 333 2500 378 C 2500 408 2475 456 2455 464 C 2431 473 2369 470 2338 458 z M 2432 423 C 2458 400 2456 344 2429 329 C 2403 316 2397 322 2377 382 C 2366 417 2365 430 2373 434 C 2396 443 2414 440 2432 423 z" stroke-linecap="round" />
</g>
		<g transform="matrix(0.13 0 0 -0.13 -37.5 222.16)"  >
<path style="stroke: none; stroke-width: 1; stroke-dasharray: none; stroke-linecap: butt; stroke-dashoffset: 0; stroke-linejoin: miter; stroke-miterlimit: 4; fill: rgb(255,255,255); fill-rule: nonzero; opacity: 1;" vector-effect="non-scaling-stroke"  transform=" translate(-1697.64, -346.73)" d="M 1570 435 C 1543 364 1529 297 1538 288 C 1555 271 1567 287 1580 340 C 1587 367 1595 388 1600 385 C 1604 383 1610 359 1614 332 C 1621 277 1641 244 1661 252 C 1669 255 1683 287 1694 324 C 1710 381 1716 390 1736 390 C 1767 390 1769 384 1758 311 C 1750 260 1751 246 1762 239 C 1785 224 1788 229 1795 288 C 1805 375 1808 381 1836 374 C 1855 369 1860 372 1860 388 C 1860 405 1851 409 1793 415 C 1755 418 1716 424 1704 426 C 1686 431 1682 424 1670 375 C 1655 313 1649 318 1635 400 C 1625 463 1588 483 1570 435 z" stroke-linecap="round" />
</g>
		<g transform="matrix(0.13 0 0 -0.13 30.37 223.89)"  >
<path style="stroke: none; stroke-width: 1; stroke-dasharray: none; stroke-linecap: butt; stroke-dashoffset: 0; stroke-linejoin: miter; stroke-miterlimit: 4; fill: rgb(255,255,255); fill-rule: nonzero; opacity: 1;" vector-effect="non-scaling-stroke"  transform=" translate(-2204.23, -334.29)" d="M 2177 418 C 2149 408 2133 373 2143 346 C 2146 338 2167 326 2190 319 C 2240 304 2242 277 2192 272 C 2144 267 2149 240 2199 240 C 2249 240 2272 262 2268 304 C 2265 331 2259 337 2222 349 C 2175 363 2171 383 2213 388 C 2232 390 2240 397 2240 411 C 2240 432 2221 434 2177 418 z" stroke-linecap="round" />
</g>
		<g transform="matrix(0.13 0 0 -0.13 11.59 226.59)"  >
<path style="stroke: none; stroke-width: 1; stroke-dasharray: none; stroke-linecap: butt; stroke-dashoffset: 0; stroke-linejoin: miter; stroke-miterlimit: 4; fill: rgb(255,255,255); fill-rule: nonzero; opacity: 1;" vector-effect="non-scaling-stroke"  transform=" translate(-2063.5, -314.04)" d="M 2046 403 L 1997 399 L 2004 347 C 2007 318 2010 278 2010 258 C 2010 221 2011 220 2048 220 C 2100 220 2130 230 2130 247 C 2130 258 2120 261 2093 258 C 2060 255 2055 258 2052 278 C 2049 297 2053 300 2079 300 C 2100 300 2110 305 2110 315 C 2110 325 2099 330 2075 330 C 2047 330 2040 334 2040 350 C 2040 366 2047 370 2075 370 C 2103 370 2110 374 2110 390 C 2110 401 2107 409 2103 408 C 2098 407 2073 405 2046 403 z" stroke-linecap="round" />
</g>
		<g transform="matrix(0.13 0 0 -0.13 -6.83 227.14)"  >
<path style="stroke: none; stroke-width: 1; stroke-dasharray: none; stroke-linecap: butt; stroke-dashoffset: 0; stroke-linejoin: miter; stroke-miterlimit: 4; fill: rgb(255,255,255); fill-rule: nonzero; opacity: 1;" vector-effect="non-scaling-stroke"  transform=" translate(-1925, -310)" d="M 1876 384 C 1873 375 1870 335 1870 294 L 1870 220 L 1925 220 C 1967 220 1980 223 1980 235 C 1980 245 1969 250 1945 250 L 1910 250 L 1910 325 C 1910 382 1907 400 1896 400 C 1888 400 1879 393 1876 384 z" stroke-linecap="round" />
</g>
		<g transform="matrix(0.13 0 0 -0.13 192.65 243.64)"  >
<path style="stroke: none; stroke-width: 1; stroke-dasharray: none; stroke-linecap: butt; stroke-dashoffset: 0; stroke-linejoin: miter; stroke-miterlimit: 4; fill: rgb(255,255,255); fill-rule: nonzero; opacity: 1;" vector-effect="non-scaling-stroke"  transform=" translate(-3422.39, -185.86)" d="M 3349 261 C 3286 197 3327 80 3414 80 C 3465 80 3497 98 3515 137 C 3566 244 3432 344 3349 261 z M 3454 259 C 3522 228 3507 119 3433 104 C 3406 99 3396 103 3369 129 C 3343 156 3339 166 3344 193 C 3350 226 3391 270 3415 270 C 3423 270 3440 265 3454 259 z" stroke-linecap="round" />
</g>
		<g transform="matrix(0.13 0 0 -0.13 193.16 243.92)"  >
<path style="stroke: none; stroke-width: 1; stroke-dasharray: none; stroke-linecap: butt; stroke-dashoffset: 0; stroke-linejoin: miter; stroke-miterlimit: 4; fill: rgb(255,255,255); fill-rule: nonzero; opacity: 1;" vector-effect="non-scaling-stroke"  transform=" translate(-3424.68, -185)" d="M 3380 185 C 3380 143 3383 130 3395 130 C 3403 130 3410 139 3410 150 C 3410 176 3430 176 3437 150 C 3440 139 3449 130 3456 130 C 3472 130 3474 148 3460 170 C 3455 179 3455 189 3462 197 C 3478 217 3453 240 3414 240 L 3380 240 L 3380 185 z M 3432 205 C 3432 200 3427 194 3421 192 C 3415 190 3410 196 3410 205 C 3410 214 3415 220 3421 218 C 3427 216 3432 210 3432 205 z" stroke-linecap="round" />
</g>
</g>
</g>
</svg>