<svg width="26" height="26" viewBox="0 0 26 26" fill="none" xmlns="http://www.w3.org/2000/svg">
<path fill-rule="evenodd" clip-rule="evenodd" d="M9.81153 22.2996L1.48952 10.4387C0.996744 9.69325 0.446563 7.9511 2.18803 6.94566L8.92921 3.05364C9.98105 2.44636 11.0029 2.85297 11.5602 3.38011C11.5602 3.38011 9.81153 3.93233 9.81153 6.94566L9.81153 22.2996ZM11.3851 7.61738V24H11.8381C12.3566 21.6494 15.0445 19.8583 18.2824 19.8583C21.5204 19.8583 24.2083 21.6494 24.7268 24H25.2827V7.61738C25.2827 6.51293 25.0986 4.58015 22.8897 4.58015H14.0541C11.7716 4.58015 11.3237 6.60497 11.3851 7.61738ZM18.2825 19.4902C20.3665 19.4902 22.056 17.8007 22.056 15.7166C22.056 13.6326 20.3665 11.9431 18.2825 11.9431C16.1984 11.9431 14.5089 13.6326 14.5089 15.7166C14.5089 17.8007 16.1984 19.4902 18.2825 19.4902Z" fill="currentColor"/>
<defs>
</defs>
</svg>
