<svg width="27" height="26" viewBox="0 0 27 26" fill="none" xmlns="http://www.w3.org/2000/svg">
<path fill-rule="evenodd" clip-rule="evenodd" d="M9.509 7.42965L9.01429 7.46871C8.95354 6.33175 8.83203 4.04741 8.83203 4.00575C8.83203 3.95368 8.84505 3.74538 9.07939 3.73887C9.26685 3.73366 9.3224 3.92764 9.32674 4.02528L12.334 4.49395L9.41136 5.56799L9.509 7.42965ZM13.8768 6.77871V7.07814H13.3756L13.3886 5.1644C13.3886 5.15138 13.4016 4.92355 13.649 4.93657C13.8468 4.94699 13.8833 5.14487 13.8768 5.24251L16.8646 5.8674L13.8768 6.77871ZM4.04116 8.35399L4.50983 8.21729L4.47728 7.61192L7.38694 6.51836L4.39266 6.09525C4.39049 5.99978 4.34058 5.80624 4.15832 5.79583C3.9305 5.78281 3.89144 5.97809 3.89795 6.09525C3.90316 6.18899 3.99559 7.64013 4.04116 8.35399ZM2.10794 11.7844C3.95659 12.9508 7.68209 13.4247 9.31375 13.5158C9.26678 13.4989 9.21369 13.4807 9.15601 13.4609C8.57955 13.2633 7.54322 12.9081 7.54322 12.0382C7.54322 10.8204 12.308 9.32385 17.8865 10.1375C22.9101 10.8702 22.4279 12.3528 21.5513 12.956C23.6082 12.6111 27.0712 11.3873 24.7018 9.90318C22.1593 8.31061 16.4415 7.93086 10.4203 8.18472C4.39922 8.43858 -0.202864 10.3263 2.10794 11.7844ZM3.35771 20.8454L1.6783 13.1123C1.6783 13.1123 5.64899 15.1237 13.7075 15.1627C21.7661 15.2018 25.3136 13.1123 25.3136 13.1123L23.6472 20.8454L22.5016 21.0862C22.5016 21.0862 22.5732 16.7575 21.7595 16.777C20.9459 16.7966 20.6595 21.3596 20.6595 21.3596C19.4585 21.5374 18.7728 21.6093 17.535 21.7046C17.535 21.7046 17.6912 17.3759 16.7278 17.3759C15.7645 17.3759 15.5692 21.7957 15.5692 21.7957C13.9428 21.8385 13.0431 21.8387 11.4618 21.7957C11.4618 21.7957 11.221 17.3759 10.2641 17.4084C9.30722 17.441 9.49599 21.6916 9.49599 21.6916C8.25884 21.6075 7.57227 21.539 6.3585 21.3791C6.3585 21.3791 6.03955 16.7315 5.2389 16.79C4.43825 16.8486 4.54891 21.0797 4.54891 21.0797L3.35771 20.8454Z" fill="currentColor"/>
</svg>
