<svg width="26" height="26" viewBox="0 0 26 26" fill="none" xmlns="http://www.w3.org/2000/svg">
<path fill-rule="evenodd" clip-rule="evenodd" d="M24 13C24 19.0751 19.0751 24 13 24C6.92487 24 2 19.0751 2 13C2 6.92487 6.92487 2 13 2C19.0751 2 24 6.92487 24 13ZM15.856 21.9981C14.9428 22.2935 13.9686 22.4531 12.957 22.4531C12.067 22.4531 11.2058 22.3296 10.3896 22.0986L9.39062 19.1016H16.7812L15.856 21.9981ZM16.8762 21.6007C18.1478 21.0173 19.267 20.1589 20.1576 19.1016H17.6836L16.8762 21.6007ZM20.773 18.2852H17.8125L20.1758 11.1523L22.3649 12.8333C22.3664 12.903 22.3672 12.9729 22.3672 13.043C22.3672 14.9836 21.7797 16.7871 20.773 18.2852ZM22.2557 11.59L20.6055 10.4648L21.1991 8.49849C21.7203 9.44178 22.0843 10.4841 22.2557 11.59ZM9.37482 21.7473L8.53125 19.1016H5.75644C6.72487 20.2513 7.96365 21.1659 9.37482 21.7473ZM5.1411 18.2852H8.40234L6.03906 11.1953L3.5469 13.0229C3.54688 13.0296 3.54688 13.0363 3.54688 13.043C3.54688 14.9836 4.13432 16.7871 5.1411 18.2852ZM3.61897 11.8724L5.69531 10.3789L4.90289 8.17389C4.2337 9.27846 3.78532 10.5317 3.61897 11.8724ZM5.57067 7.21202L6.51172 10.0352L12.5703 5.69531L10.3382 4.00201C8.42993 4.5538 6.77113 5.69341 5.57067 7.21202ZM11.4389 3.75463C11.9331 3.67448 12.4402 3.63281 12.957 3.63281C13.5374 3.63281 14.1056 3.68536 14.6569 3.78595L13.0859 5.00781L11.4389 3.75463ZM15.8199 4.07623L13.6875 5.69531L19.7461 10.0352L20.5543 7.48921C19.39 5.89922 17.7387 4.68833 15.8199 4.07623Z" fill="url(#paint0_linear_157_1129)"/>
<defs>
<linearGradient id="paint0_linear_157_1129" x1="2.90164" y1="19.3115" x2="22.7377" y2="4.70492" gradientUnits="userSpaceOnUse">
<stop stop-color="#A30ECA"/>
<stop offset="0.492073" stop-color="#5D52C7"/>
<stop offset="1" stop-color="#4DC1C5"/>
</linearGradient>
</defs>
</svg>
